<?xml version="1.0" standalone="no"?>
<!DOCTYPE svg PUBLIC "-//W3C//DTD SVG 20010904//EN"
 "http://www.w3.org/TR/2001/REC-SVG-20010904/DTD/svg10.dtd">
<svg version="1.0" xmlns="http://www.w3.org/2000/svg"
 width="512.000000pt" height="512.000000pt" viewBox="0 0 512.000000 512.000000"
 preserveAspectRatio="xMidYMid meet">

<g transform="translate(0.000000,512.000000) scale(0.100000,-0.100000)"
fill="#000000" stroke="none">
<path d="M1711 3791 c-464 -273 -844 -501 -845 -505 -2 -14 1668 -990 1694
-990 25 0 1692 972 1694 988 1 7 -1660 992 -1689 1001 -5 2 -390 -220 -854
-494z"/>
<path d="M860 1793 l0 -478 843 -487 842 -487 3 485 c1 267 1 701 0 964 l-3
479 -419 -245 -419 -244 -417 245 c-229 135 -420 245 -423 245 -4 0 -7 -215
-7 -477z"/>
</g>
</svg>
